<?xml version="1.0" standalone="no"?>
<!DOCTYPE svg PUBLIC "-//W3C//DTD SVG 20010904//EN"
 "http://www.w3.org/TR/2001/REC-SVG-20010904/DTD/svg10.dtd">
<svg version="1.0" xmlns="http://www.w3.org/2000/svg"
 width="400.000000pt" height="400.000000pt" viewBox="0 0 400.000000 400.000000"
 preserveAspectRatio="xMidYMid meet">
<metadata>
Created by potrace 1.11, written by Peter Selinger 2001-2013
</metadata>
<g transform="translate(0.000000,400.000000) scale(0.100000,-0.100000)"
fill="#000000" stroke="none">
<path d="M1685 3984 c-44 -7 -116 -23 -160 -34 -44 -11 -90 -23 -102 -25 -47
-11 -191 -68 -290 -116 -211 -101 -371 -215 -544 -388 -63 -64 -135 -143 -160
-176 -24 -33 -49 -66 -56 -73 -23 -24 -121 -189 -166 -278 -89 -179 -164 -423
-191 -630 -13 -94 -14 -430 -2 -499 2 -16 10 -61 16 -100 24 -153 80 -330 153
-490 231 -503 659 -888 1186 -1064 120 -40 265 -73 386 -89 121 -15 545 -5
575 13 3 2 21 6 40 9 69 11 172 37 262 67 350 118 645 317 894 606 242 281
405 649 460 1041 12 84 11 401 -1 492 -35 260 -87 428 -205 665 -191 383 -520
706 -910 893 -185 88 -346 140 -555 176 -107 19 -520 19 -630 0z"/>
</g>
</svg>
